<?xml version="1.0" standalone="no"?>
<!DOCTYPE svg PUBLIC "-//W3C//DTD SVG 20010904//EN"
 "http://www.w3.org/TR/2001/REC-SVG-20010904/DTD/svg10.dtd">
<svg version="1.0" xmlns="http://www.w3.org/2000/svg"
 width="512.000000pt" height="512.000000pt" viewBox="0 0 512.000000 512.000000"
 preserveAspectRatio="xMidYMid meet">
<metadata>
Created by potrace 1.16, written by Peter Selinger 2001-2019
</metadata>
<g transform="translate(0.000000,512.000000) scale(0.100000,-0.100000)"
fill="#ffffff" stroke="10px">
<path d="M2465 4617 c-113 -44 -175 -133 -175 -251 0 -100 79 -210 169 -237
l41 -12 0 -109 0 -108 50 0 50 0 0 109 c0 105 1 109 23 115 85 21 169 121 182
217 20 147 -106 290 -255 288 -30 0 -69 -6 -85 -12z m173 -113 c43 -32 74
-101 67 -149 -13 -87 -74 -139 -161 -139 -116 0 -189 120 -138 227 9 19 35 46
58 61 35 23 49 27 94 23 31 -2 64 -12 80 -23z"/>
<path d="M1286 3714 c-136 -33 -274 -134 -350 -257 -73 -118 -87 -180 -93
-409 l-6 -198 -121 0 c-96 0 -129 -4 -162 -19 -48 -22 -100 -82 -115 -131 -6
-22 -9 -152 -7 -346 l3 -311 28 -41 c15 -23 46 -54 69 -69 39 -26 49 -28 175
-31 l133 -4 0 -136 c1 -232 25 -335 107 -456 51 -75 138 -153 211 -190 111
-56 132 -60 387 -65 l240 -6 3 -264 c1 -175 6 -269 13 -278 6 -7 22 -13 35
-13 14 0 194 113 441 277 l418 278 560 5 c509 5 565 8 610 24 134 49 235 125
308 232 82 121 106 224 107 456 l0 136 133 4 c126 3 136 5 175 31 23 15 54 46
69 69 l28 41 3 311 c2 194 -1 324 -7 346 -15 49 -67 109 -115 131 -33 15 -66
19 -162 19 l-121 0 -6 198 c-6 229 -20 291 -93 409 -78 125 -214 224 -355 258
-93 22 -2452 21 -2543 -1z m2529 -99 c187 -49 330 -211 355 -405 13 -104 13
-1566 -1 -1650 -27 -172 -144 -316 -311 -383 -51 -20 -73 -21 -623 -27 l-570
-6 -385 -255 -385 -255 -5 255 -5 256 -285 5 c-261 5 -289 7 -338 27 -168 68
-284 211 -311 383 -14 84 -14 1546 -1 1650 24 190 168 355 351 404 84 23 2428
23 2514 1z m-2985 -1240 l0 -375 -105 0 c-120 0 -155 12 -180 60 -14 26 -15
75 -13 331 l3 301 33 29 c32 28 34 29 147 29 l115 0 0 -375z m3722 346 l33
-29 3 -301 c2 -256 1 -305 -13 -331 -25 -48 -60 -60 -180 -60 l-105 0 0 375 0
375 115 0 c113 0 115 -1 147 -29z"/>
<path d="M1880 3229 c-201 -39 -332 -250 -276 -443 69 -235 337 -337 536 -204
105 70 159 171 160 295 0 106 -28 173 -104 249 -87 87 -203 125 -316 103z
m175 -119 c47 -20 108 -84 130 -136 8 -20 15 -64 15 -98 -1 -217 -253 -332
-418 -190 -65 55 -86 104 -87 194 0 64 4 82 27 121 72 122 204 165 333 109z"/>
<path d="M3117 3230 c-157 -27 -278 -160 -294 -322 -14 -150 70 -289 216 -356
47 -22 70 -27 141 -26 72 0 94 5 144 29 76 36 140 100 174 173 23 49 27 70 27
152 0 83 -3 102 -27 151 -52 105 -147 177 -263 198 -32 6 -61 10 -64 10 -3 -1
-28 -5 -54 -9z m170 -122 c56 -26 117 -97 133 -153 55 -196 -121 -377 -312
-321 -139 40 -219 188 -174 322 49 150 211 219 353 152z"/>
<path d="M1835 2093 c20 -149 82 -270 195 -383 145 -146 305 -212 515 -213
183 0 342 55 477 167 131 109 238 308 238 443 l0 33 -716 0 -715 0 6 -47z
m1308 -60 c10 -16 -45 -131 -93 -194 -183 -245 -530 -315 -815 -166 -118 62
-252 224 -280 340 l-7 27 595 0 c328 0 598 -3 600 -7z"/>
</g>
</svg>
